<?xml version="1.0" encoding="utf-8"?>
<!-- Generator: Adobe Illustrator 18.0.0, SVG Export Plug-In . SVG Version: 6.00 Build 0)  -->
<!DOCTYPE svg PUBLIC "-//W3C//DTD SVG 1.1//EN" "http://www.w3.org/Graphics/SVG/1.1/DTD/svg11.dtd">
<svg version="1.1" id="Layer_1" xmlns="http://www.w3.org/2000/svg" xmlns:xlink="http://www.w3.org/1999/xlink" x="0px" y="0px"
	 viewBox="0 0 1400 980" enable-background="new 0 0 1400 980" xml:space="preserve">
<g>
	<defs>
		<rect id="SVGID_1_" width="1400" height="980"/>
	</defs>
	<clipPath id="SVGID_2_">
		<use xlink:href="#SVGID_1_"  overflow="visible"/>
	</clipPath>
	<rect clip-path="url(#SVGID_2_)" fill="#FFFFFF" width="1400" height="980"/>
	<path clip-path="url(#SVGID_2_)" fill="#EDF7F7" d="M871,1419.6c-200.4-41.2-405-67.8-597.8-135.5
		C130,1233.8-14.5,1151.5-75.1,1014.4c-36.4-82.2-38.3-174.9-35.4-264.5c1.6-50.1,4.9-101.1,24-147.5c19.1-46.4,57.1-88,106.7-99.5
		c28.8-6.7,69.3-12,70-41.1c9,20.2,38.9,0,61.2-1.9c9.6-0.8,19,2.5,28.1,5.7c152.1,52.9,318.8,64.7,477,33.7
		c11.4-2.2,23.2-4.7,34.5-2.2c16,3.5,28,16.1,40.1,27.1c25.7,23.5,61.6,43,94.9,31.9c21.4-7.2,36.6-25.4,54.2-39.3
		c50.8-39.8,122-42.8,186.3-33.5c64.3,9.3,127.6,28.9,192.5,27.6c33.8-0.7,68.7-6.9,100.6,4.2c47.5,16.5,73.4,65.8,92,111.9
		c84.2,209,109.4,440.6,72.2,662.3c-5,29.9-11.5,60.5-29.1,85.4c-18.4,26.1-47.1,43.3-76.6,56.2
		C1248.4,1505.3,1052.8,1456.9,871,1419.6z"/>
	<path clip-path="url(#SVGID_2_)" fill="#DAE5E5" d="M99.9,578.2c56.9,2.7,116.1,11,169-10c30.1-12,56.4-32.9,87.5-42
		c60.8-17.8,124,12.7,180.6,40.9c24.5,12.1,49.1,24,74.3,34.6c17.9,7.5,36.1,14.3,54.2,21.1c16.2,6.1,32.4,12.2,48.7,18.3
		c43.6,16.3,88.9,33,135.3,29.4c48.2-3.7,91.6-28.8,136.4-47.1c98.1-40.3,205.8-49.2,311.6-57.6c38.5-3.1,81.2-4.9,111.1,19.6
		c29.4,24.1,36.3,65.5,41.3,103.2c27.5,209.6,50.9,439.2-62.8,617.5c-17.7,27.7-39.2,54.2-68.3,69.4c-30.5,16-66.3,18.1-100.7,19.4
		c-353.8,13.9-709.2-12.8-1057-79.4c-43.6-8.3-87.3-17.4-128.3-34.4c-89.7-37.3-164.3-118.1-178.5-214.2c-4.7-31.6-3-63.8-1.3-95.8
		c2.6-47.3,5.1-94.6,7.7-142c4.1-75.8,12.4-160.7,70.5-209.7C-23.6,581,40.6,575.4,99.9,578.2z"/>
	<path clip-path="url(#SVGID_2_)" fill="#ACB5B5" d="M1230.6,743.2c35.9-7.8,71.9-18.1,108.5-16.2c36.6,2,75.1,19.2,90.7,52.5
		c19.5,41.6-2.4,89.4-12.7,134.2c-25.4,110.2,19.4,239.1-46,331.4c-31.7,44.7-84.6,70.8-138.4,81.2c-53.8,10.4-109.2,6.9-163.9,2.9
		c-120-8.8-239.9-19.6-359.6-32.5c-142-15.3-285.6-33.9-417.9-87.5c-48.7-19.7-95.5-44.1-145.5-60.4c-59-19.3-121.8-26.9-183.7-22.4
		c-28.9,2.1-61.6,5.8-83.6-13.2c-10.4-9-16.7-21.8-20.9-34.9c-16.7-51.8-4.6-108.8,16.5-158.9c21.2-50.1,51.2-96.1,72.6-146.1
		c9.5-22.2,17.5-45.6,32.7-64.2c15.3-18.7,40.2-32,63.4-25.6c7.7,2.1,14.8,6.2,22.3,9c9.2,3.4,19.1,4.7,28.8,6
		c12.7,1.7,25.5,3.3,38.2,5c71.8,9.4,144.2,18.9,216.3,12.4c31.6-2.8,66-8.1,92.9,8.7c5.6,3.5,11.1,8.1,17.7,8.8
		c6.2,0.7,12.1-2.1,18-3.9c46.6-14.5,95.2,27.9,143,18.4c18.6-3.7,35.2-15.1,54.1-17.4c10-1.2,20.1,0.2,30.1,1.7
		c31.3,4.5,62.7,9,94,13.5c13.4-18.9,42-14.3,64.4-8.6C982.7,767.4,1109.7,769.5,1230.6,743.2z"/>
	<g clip-path="url(#SVGID_2_)">
		<g>
			
				<rect x="842.9" y="646.6" transform="matrix(0.9999 1.230514e-02 -1.230514e-02 0.9999 8.336 -11.7136)" fill="#ACB5B5" width="226.3" height="50"/>
		</g>
		<g>
			
				<rect x="1054.5" y="683.6" transform="matrix(-0.9999 -1.230367e-02 1.230367e-02 -0.9999 2113.8567 1484.709)" fill="#ACB5B5" width="13.9" height="104.4"/>
		</g>
		<g>
			
				<rect x="862.5" y="682.2" transform="matrix(0.9999 1.230504e-02 -1.230504e-02 0.9999 8.6045 -11.6108)" fill="#ACB5B5" width="170.8" height="22.4"/>
		</g>
		<g>
			
				<rect x="875.9" y="679.1" transform="matrix(-0.9999 -1.230486e-02 1.230486e-02 -0.9999 1850.5808 1474.0188)" fill="#ACB5B5" width="107.9" height="104.4"/>
		</g>
		<g>
			
				<rect x="842.2" y="665.3" transform="matrix(0.9999 1.230943e-02 -1.230943e-02 0.9999 8.9752 -10.3736)" fill="#ACB5B5" width="9.9" height="117.2"/>
		</g>
		<g>
			
				<rect x="921.8" y="110.3" transform="matrix(0.9999 1.229455e-02 -1.229455e-02 0.9999 4.8644 -11.3226)" fill="#ACB5B5" width="3.1" height="559.3"/>
		</g>
		<g>
			<g>
				<polygon fill="#ACB5B5" points="982.7,658.4 935.5,124.4 911.1,124.1 894.7,655.1 890.7,655 907.3,120.1 939.1,120.5 
					939.3,122.2 986.6,658 				"/>
			</g>
		</g>
		<g>
			
				<rect x="903.3" y="104.8" transform="matrix(0.9999 1.230438e-02 -1.230438e-02 0.9999 1.4895 -11.3646)" fill="#ACB5B5" width="42" height="21.2"/>
		</g>
		<g>
			<circle fill="#ACB5B5" cx="942" cy="111" r="15.2"/>
		</g>
		<g>
			
				<rect x="654.5" y="397.1" transform="matrix(1.230526e-02 -0.9999 0.9999 1.230526e-02 522.6348 1328.7217)" fill="#ACB5B5" width="558.8" height="5.4"/>
		</g>
		<g>
			<polygon fill="#ACB5B5" points="901.9,295.1 923,295.4 938,286.3 952.7,295.7 961.2,415 941.7,414.8 933.4,443.7 920.3,443.6 
				901.8,426.7 900.5,408.3 			"/>
		</g>
		<g>
			<polygon fill="#ACB5B5" points="902.5,297 901.2,293.2 945.2,277.6 902.7,241.9 939.4,220.7 906.1,189.3 939.7,160.6 
				901.9,127.2 904.5,124.2 945.7,160.6 912.1,189.4 946,221.4 909.6,242.5 953,279 			"/>
		</g>
		<g>
			<polygon fill="#ACB5B5" points="894.3,657 892.6,653.4 937.6,631.7 895.1,583.5 931.8,554.8 898.6,512.4 932.4,473.3 
				901.2,421.1 904.6,419 937.3,473.7 903.7,512.5 937.4,555.4 900.9,584 944,633 			"/>
		</g>
		<g>
			
				<rect x="906.1" y="157.1" transform="matrix(0.9999 1.230483e-02 -1.230483e-02 0.9999 2.0269 -11.3624)" fill="#ACB5B5" width="36.6" height="4"/>
		</g>
		<g>
			
				<rect x="905.3" y="219.3" transform="matrix(0.9999 1.230483e-02 -1.230483e-02 0.9999 2.7924 -11.3483)" fill="#ACB5B5" width="36.6" height="4"/>
		</g>
		<g>
			
				<rect x="905.7" y="188.8" transform="matrix(0.9999 1.230486e-02 -1.230486e-02 0.9999 2.4179 -11.3552)" fill="#ACB5B5" width="36.6" height="4"/>
		</g>
		<g>
			
				<rect x="905.1" y="240.5" transform="matrix(0.9999 1.230520e-02 -1.230520e-02 0.9999 3.0539 -11.3922)" fill="#ACB5B5" width="44.5" height="4"/>
		</g>
		<g>
			
				<rect x="904.6" y="274.9" transform="matrix(0.9999 1.230523e-02 -1.230523e-02 0.9999 3.4773 -11.3844)" fill="#ACB5B5" width="44.5" height="4"/>
		</g>
		<g>
			<polygon fill="#ACB5B5" points="931.8,640.8 930.1,637.3 974.8,615 927.8,585.3 970.6,560.2 931.9,527.1 960.2,504.6 
				936.3,473.5 961.2,444.1 934.9,409.9 938.1,407.5 966.3,444.2 941.4,473.6 965.8,505.3 938.2,527.2 977.4,560.8 935.4,585.4 
				982.9,615.4 			"/>
		</g>
		<g>
			
				<rect x="908.6" y="426.8" transform="matrix(0.9999 1.231583e-02 -1.231583e-02 0.9999 6.8291 -11.1728)" fill="#ACB5B5" width="4" height="244.2"/>
		</g>
		<g>
			
				<rect x="878.7" y="503.5" transform="matrix(0.9999 1.230481e-02 -1.230481e-02 0.9999 6.2884 -11.1334)" fill="#ACB5B5" width="58.5" height="4"/>
		</g>
		<g>
			
				<rect x="930.2" y="555.8" transform="matrix(0.9999 1.230573e-02 -1.230573e-02 0.9999 6.9368 -11.8176)" fill="#ACB5B5" width="67.2" height="4"/>
		</g>
		<g>
			
				<rect x="875.3" y="373.7" transform="matrix(-0.9986 5.245557e-02 -5.245557e-02 -0.9986 1783.5416 1027.9003)" fill="#ACB5B5" width="6" height="327.3"/>
		</g>
		<g>
			<polygon fill="#ACB5B5" points="866.7,374.1 893.9,369.6 912.5,388.8 909.1,408.4 889.2,419.9 868.8,414.4 			"/>
		</g>
		<g>
			
				<rect x="906.8" y="95.3" transform="matrix(0.9999 1.231191e-02 -1.231191e-02 0.9999 1.3364 -11.1938)" fill="#ACB5B5" width="6.1" height="15.2"/>
		</g>
	</g>
	<g clip-path="url(#SVGID_2_)">
		<g>
			
				<rect x="43.1" y="632.5" transform="matrix(0.9999 1.230555e-02 -1.230555e-02 0.9999 8.0063 -1.4497)" fill="#ACB5B5" width="157.4" height="34.7"/>
		</g>
		<g>
			
				<rect x="190.3" y="658.3" transform="matrix(-0.9999 -1.229842e-02 1.229842e-02 -0.9999 381.7484 1391.5492)" fill="#ACB5B5" width="9.7" height="72.6"/>
		</g>
		<g>
			
				<rect x="56.7" y="657.3" transform="matrix(0.9999 1.230535e-02 -1.230535e-02 0.9999 8.193 -1.3782)" fill="#ACB5B5" width="118.8" height="15.6"/>
		</g>
		<g>
			
				<rect x="66" y="655.1" transform="matrix(-0.9999 -1.230558e-02 1.230558e-02 -0.9999 198.6041 1384.1134)" fill="#ACB5B5" width="75" height="72.6"/>
		</g>
		<g>
			
				<rect x="42.6" y="645.5" transform="matrix(0.9999 1.230881e-02 -1.230881e-02 0.9999 8.451 -0.5152)" fill="#ACB5B5" width="6.9" height="81.5"/>
		</g>
		<g>
			
				<rect x="98" y="259.5" transform="matrix(0.9999 1.229320e-02 -1.229320e-02 0.9999 5.5887 -1.1834)" fill="#ACB5B5" width="2.2" height="389"/>
		</g>
		<g>
			<g>
				<polygon fill="#ACB5B5" points="140.3,640.7 107.5,269.2 90.6,269 79.1,638.4 76.4,638.4 87.9,266.2 110,266.5 110.1,267.8 
					143.1,640.5 				"/>
			</g>
		</g>
		<g>
			
				<rect x="85.1" y="255.6" transform="matrix(0.9999 1.230425e-02 -1.230425e-02 0.9999 3.2433 -1.2073)" fill="#ACB5B5" width="29.2" height="14.7"/>
		</g>
		<g>
			<circle fill="#ACB5B5" cx="112" cy="259.9" r="10.6"/>
		</g>
		<g>
			
				<rect x="-88" y="459" transform="matrix(1.230503e-02 -0.9999 0.9999 1.230503e-02 -355.7185 561.5618)" fill="#ACB5B5" width="388.7" height="3.8"/>
		</g>
		<g>
			<polygon fill="#ACB5B5" points="84.1,388 98.8,388.2 109.2,381.9 119.5,388.4 125.4,471.4 111.8,471.3 106,491.4 96.9,491.3 
				84,479.5 83.1,466.7 			"/>
		</g>
		<g>
			<polygon fill="#ACB5B5" points="84.6,389.3 83.7,386.7 114.2,375.8 84.7,351 110.2,336.2 87.1,314.4 110.4,294.4 84.1,271.2 
				85.9,269.1 114.6,294.4 91.2,314.5 114.8,336.8 89.5,351.4 119.7,376.8 			"/>
		</g>
		<g>
			<polygon fill="#ACB5B5" points="78.9,639.7 77.7,637.2 108.9,622.1 79.4,588.6 105,568.6 81.8,539.1 105.4,511.9 83.6,475.6 
				86,474.2 108.8,512.2 85.4,539.2 108.8,569.1 83.4,589 113.4,623.1 			"/>
		</g>
		<g>
			
				<rect x="87" y="292" transform="matrix(0.9999 1.230699e-02 -1.230699e-02 0.9999 3.6179 -1.2058)" fill="#ACB5B5" width="25.5" height="2.8"/>
		</g>
		<g>
			
				<rect x="86.5" y="335.3" transform="matrix(0.9999 1.230699e-02 -1.230699e-02 0.9999 4.1505 -1.196)" fill="#ACB5B5" width="25.5" height="2.8"/>
		</g>
		<g>
			
				<rect x="86.8" y="314.1" transform="matrix(0.9999 1.230694e-02 -1.230694e-02 0.9999 3.8899 -1.2008)" fill="#ACB5B5" width="25.5" height="2.8"/>
		</g>
		<g>
			
				<rect x="86.3" y="350" transform="matrix(0.9999 1.230581e-02 -1.230581e-02 0.9999 4.3319 -1.2262)" fill="#ACB5B5" width="30.9" height="2.8"/>
		</g>
		<g>
			
				<rect x="86" y="374" transform="matrix(0.9999 1.230581e-02 -1.230581e-02 0.9999 4.6265 -1.2207)" fill="#ACB5B5" width="30.9" height="2.8"/>
		</g>
		<g>
			<polygon fill="#ACB5B5" points="105,628.5 103.7,626 134.9,610.5 102.2,589.9 131.9,572.4 105,549.4 124.7,533.8 108.1,512.1 
				125.4,491.6 107.1,467.9 109.3,466.2 128.9,491.7 111.6,512.2 128.6,534.2 109.4,549.5 136.7,572.8 107.5,589.9 140.5,610.8 			
				"/>
		</g>
		<g>
			
				<rect x="88.8" y="479.6" transform="matrix(0.9999 1.230988e-02 -1.230988e-02 0.9999 6.9564 -1.0672)" fill="#ACB5B5" width="2.8" height="169.9"/>
		</g>
		<g>
			
				<rect x="68" y="533" transform="matrix(0.9999 1.230413e-02 -1.230413e-02 0.9999 6.5813 -1.0462)" fill="#ACB5B5" width="40.7" height="2.8"/>
		</g>
		<g>
			
				<rect x="103.8" y="569.3" transform="matrix(0.9999 1.230447e-02 -1.230447e-02 0.9999 7.0322 -1.5216)" fill="#ACB5B5" width="46.7" height="2.8"/>
		</g>
		<g>
			
				<rect x="65.6" y="442.7" transform="matrix(-0.9986 5.243843e-02 -5.243843e-02 -0.9986 164.5021 1108.7296)" fill="#ACB5B5" width="4.1" height="227.7"/>
		</g>
		<g>
			<polygon fill="#ACB5B5" points="59.7,442.9 78.6,439.8 91.5,453.2 89.1,466.8 75.3,474.8 61.1,471 			"/>
		</g>
		<g>
			
				<rect x="87.5" y="249" transform="matrix(0.9999 1.231852e-02 -1.231852e-02 0.9999 3.1399 -1.085)" fill="#ACB5B5" width="4.2" height="10.6"/>
		</g>
	</g>
	<g clip-path="url(#SVGID_2_)">
		<g>
			<rect x="300.7" y="500.8" fill="#A5A5A5" width="230.4" height="19.4"/>
			<path fill="#A5A5A5" d="M441.4,493.6h-23c-3.2,0-5.8,2.6-5.8,5.8v13.7c0,1.5,0.6,3,1.7,4.1l11.5,11.7c2.3,2.3,6,2.3,8.3,0
				l11.5-11.7c1.1-1.1,1.7-2.5,1.7-4.1v-13.7C447.2,496.2,444.6,493.6,441.4,493.6z"/>
			<rect x="319.3" y="497.1" fill="#A5A5A5" width="12.9" height="13.4"/>
			<rect x="333.9" y="513.5" fill="#A5A5A5" width="12.9" height="13.4"/>
			<rect x="306.4" y="513.5" fill="#A5A5A5" width="12.9" height="13.4"/>
			<circle fill="#A5A5A5" cx="326.3" cy="535.2" r="12.1"/>
			
				<rect x="336" y="522.6" transform="matrix(-0.9851 -0.172 0.172 -0.9851 580.5504 1111.6006)" fill="#A5A5A5" width="4.8" height="16.1"/>
			
				<rect x="311.8" y="522.6" transform="matrix(0.9851 -0.172 0.172 0.9851 -86.5795 61.9469)" fill="#A5A5A5" width="4.8" height="16.1"/>
			<polygon fill="#A5A5A5" points="385.7,729.9 381.1,731.4 319.3,532.2 323.9,530.7 			"/>
			<rect x="407.9" y="530.7" fill="#A5A5A5" width="44.6" height="4.5"/>
			<g>
				<polygon fill="#A5A5A5" points="475.9,730.9 480.2,730.4 454.3,528.5 406,528.5 383.4,730.4 387.7,730.9 409.8,532.8 
					450.5,532.8 				"/>
			</g>
			<g>
				<polygon fill="#A5A5A5" points="476.8,704.8 403.5,633.4 467.9,642.9 410.6,564.5 455.6,577.2 456.5,574.1 402.5,558.9 
					460.8,638.5 394.1,628.7 467.7,700.4 392.1,691.3 391.7,694.5 				"/>
			</g>
			<rect x="467.3" y="727.4" fill="#A5A5A5" width="25.8" height="7.1"/>
			<rect x="370.5" y="727.4" fill="#A5A5A5" width="25.8" height="7.1"/>
			<g>
				<path fill="#A5A5A5" d="M547.3,563.1c1.4,3.3,3.6,6,6.4,7.8c1.8,1.1,2.9,1.4,3.3,1.4c12.5-22.1,18.3-43.2,17.3-62.5
					c-0.9-17-7-29.6-11.9-37.1c-1.4-2.1-3.7-3.4-6.2-3.6c-2.6-0.1-5,0.9-6.6,2.9l-15.8,19.4h-13.9l21.4-26.2
					c3.8-4.7,9.5-7.2,15.5-6.9c6,0.3,11.4,3.4,14.7,8.4c5.7,8.7,12.7,23.1,13.7,42.5c1.1,21.4-5.2,44.5-18.7,68.4
					c-1.5,2.6-3.8,4.4-6.6,5.1c-0.8,0.2-1.7,0.3-2.7,0.3c-2.4,0-5.4-0.7-9.1-3c-4.7-3-8.4-7.4-10.6-12.8l-16.2-38.8h11.7
					L547.3,563.1z"/>
			</g>
			<polygon fill="#A5A5A5" points="518.8,492.5 579.9,493.6 579.9,485.1 525.9,485.1 			"/>
			<polygon fill="#A5A5A5" points="522.3,531.4 583.4,531.4 583.4,523.8 519.1,523.8 			"/>
			<rect x="539.3" y="489.3" fill="#A5A5A5" width="7" height="36.4"/>
			<rect x="579.9" y="523.8" fill="#A5A5A5" width="3.5" height="164.8"/>
			<rect x="571.6" y="674.6" fill="#A5A5A5" width="18.3" height="35.5"/>
			<rect x="567" y="688.6" fill="#A5A5A5" width="28" height="5.4"/>
			<rect x="567" y="702.1" fill="#A5A5A5" width="28" height="5.4"/>
			<polygon fill="#A5A5A5" points="595,710.1 567,710.1 573.8,727.4 589.9,727.4 			"/>
			<rect x="573.4" y="613.3" fill="#A5A5A5" width="15.3" height="4.3"/>
			<rect x="573.4" y="622.4" fill="#A5A5A5" width="15.3" height="4.3"/>
			<path fill="#A5A5A5" d="M267.5,745.6h260.7c6.1,0,11.1-5,11.1-11.1l0,0H256.4l0,0C256.4,740.6,261.4,745.6,267.5,745.6z"/>
			<rect x="498.5" y="734.5" fill="#A5A5A5" width="9.7" height="77.8"/>
			<rect x="295.9" y="734.5" fill="#A5A5A5" width="9.7" height="77.8"/>
			<rect x="523.6" y="488.9" fill="#A5A5A5" width="8.8" height="41.9"/>
			<circle fill="#A5A5A5" cx="346.8" cy="709.5" r="30.5"/>
			<circle fill="#A5A5A5" cx="385.7" cy="710.9" r="22.4"/>
			<circle fill="#A5A5A5" cx="278.4" cy="720.4" r="12.9"/>
			<rect x="387.7" y="702.1" fill="#A5A5A5" width="54.9" height="20.9"/>
			<rect x="434.3" y="679" fill="#A5A5A5" width="16.1" height="48.4"/>
			<path fill="#A5A5A5" d="M449.3,695.8h-23.7l-6.5-42.5C419.2,653.3,449.3,671.1,449.3,695.8z"/>
			<path fill="#A5A5A5" d="M449.3,718.8h-23.7l-6.5,42.5C419.2,761.3,449.3,743.5,449.3,718.8z"/>
			<rect x="442.3" y="688.6" fill="#A5A5A5" width="17.9" height="13.5"/>
			<rect x="442.3" y="704.2" fill="#A5A5A5" width="17.9" height="13.5"/>
			<g>
				<path fill="#A5A5A5" d="M268.9,709.3l70.9-29.7v52.6l-62.4,2.5L268.9,709.3z M337.1,683.7l-64.9,27.2l7.1,21.1l57.8-2.3V683.7z"
					/>
			</g>
		</g>
		<rect x="473.7" y="740" fill="#A5A5A5" width="6.5" height="72.2"/>
		<rect x="329.9" y="740" fill="#A5A5A5" width="6.5" height="72.2"/>
		<rect x="476.8" y="754.6" fill="#A5A5A5" width="26.5" height="6.7"/>
		<rect x="476.8" y="772.8" fill="#A5A5A5" width="26.5" height="6.7"/>
		<rect x="476.8" y="791" fill="#A5A5A5" width="26.5" height="6.7"/>
		<rect x="300.7" y="754.6" fill="#A5A5A5" width="31.8" height="6.7"/>
		<rect x="300.7" y="772.8" fill="#A5A5A5" width="31.8" height="6.7"/>
		<rect x="300.7" y="791" fill="#A5A5A5" width="31.8" height="6.7"/>
	</g>
	<g clip-path="url(#SVGID_2_)">
		<g>
			<rect x="1121.9" y="465.5" fill="#ACB5B5" width="230.4" height="19.4"/>
			<path fill="#ACB5B5" d="M1211.7,458.3h23c3.2,0,5.8,2.6,5.8,5.8v13.7c0,1.5-0.6,3-1.7,4.1l-11.5,11.7c-2.3,2.3-6,2.3-8.3,0
				l-11.5-11.7c-1.1-1.1-1.7-2.5-1.7-4.1v-13.7C1205.9,460.9,1208.5,458.3,1211.7,458.3z"/>
			<rect x="1320.9" y="461.8" fill="#ACB5B5" width="12.9" height="13.4"/>
			<rect x="1306.3" y="478.2" fill="#ACB5B5" width="12.9" height="13.4"/>
			<rect x="1333.8" y="478.2" fill="#ACB5B5" width="12.9" height="13.4"/>
			<circle fill="#ACB5B5" cx="1326.8" cy="499.9" r="12.1"/>
			
				<rect x="1312.2" y="487.3" transform="matrix(0.9851 -0.172 0.172 0.9851 -65.5969 233.4484)" fill="#ACB5B5" width="4.8" height="16.1"/>
			
				<rect x="1336.5" y="487.3" transform="matrix(-0.9851 -0.172 0.172 -0.9851 2572.6162 1213.5542)" fill="#ACB5B5" width="4.8" height="16.1"/>
			<polygon fill="#ACB5B5" points="1267.4,694.6 1272,696.1 1333.8,496.9 1329.2,495.4 			"/>
			<rect x="1200.7" y="495.4" fill="#ACB5B5" width="44.6" height="4.5"/>
			<g>
				<polygon fill="#ACB5B5" points="1177.2,695.6 1172.9,695.1 1198.8,493.2 1247.1,493.2 1269.7,695.1 1265.4,695.6 1243.3,497.5 
					1202.6,497.5 				"/>
			</g>
			<g>
				<polygon fill="#ACB5B5" points="1176.3,669.5 1249.6,598.1 1185.2,607.6 1242.5,529.2 1197.5,541.9 1196.6,538.8 1250.6,523.6 
					1192.3,603.2 1259,593.4 1185.4,665.1 1261,656 1261.4,659.2 				"/>
			</g>
			<rect x="1160" y="692.1" fill="#ACB5B5" width="25.8" height="7.1"/>
			<rect x="1256.8" y="692.1" fill="#ACB5B5" width="25.8" height="7.1"/>
			<g>
				<path fill="#ACB5B5" d="M1105.8,527.8c-1.4,3.3-3.6,6-6.4,7.8c-1.8,1.1-2.9,1.4-3.3,1.4c-12.5-22.1-18.3-43.2-17.3-62.5
					c0.9-17,7-29.6,11.9-37.1c1.4-2.1,3.7-3.4,6.2-3.6c2.6-0.1,5,0.9,6.6,2.9l15.8,19.4h13.9l-21.4-26.2c-3.8-4.7-9.5-7.2-15.5-6.9
					c-6,0.3-11.4,3.4-14.7,8.4c-5.7,8.7-12.7,23.1-13.7,42.5c-1.1,21.4,5.2,44.5,18.7,68.4c1.5,2.6,3.8,4.4,6.6,5.1
					c0.8,0.2,1.7,0.3,2.7,0.3c2.4,0,5.4-0.7,9.1-3c4.7-3,8.4-7.4,10.6-12.8l16.2-38.8h-11.7L1105.8,527.8z"/>
			</g>
			<polygon fill="#ACB5B5" points="1134.3,457.2 1073.2,458.3 1073.2,449.8 1127.2,449.8 			"/>
			<polygon fill="#ACB5B5" points="1130.8,496.1 1069.7,496.1 1069.7,488.5 1134,488.5 			"/>
			<rect x="1106.8" y="454" fill="#ACB5B5" width="7" height="36.4"/>
			<rect x="1069.7" y="488.5" fill="#ACB5B5" width="3.5" height="164.8"/>
			<rect x="1063.2" y="639.3" fill="#ACB5B5" width="18.3" height="35.5"/>
			<rect x="1058.1" y="653.3" fill="#ACB5B5" width="28" height="5.4"/>
			<rect x="1058.1" y="666.8" fill="#ACB5B5" width="28" height="5.4"/>
			<polygon fill="#ACB5B5" points="1058.1,674.8 1086.1,674.8 1079.3,692.1 1063.2,692.1 			"/>
			<rect x="1064.4" y="578" fill="#ACB5B5" width="15.3" height="4.3"/>
			<rect x="1064.4" y="587.1" fill="#ACB5B5" width="15.3" height="4.3"/>
			<path fill="#ACB5B5" d="M1385.6,710.3h-260.7c-6.1,0-11.1-5-11.1-11.1l0,0h282.9l0,0C1396.7,705.3,1391.7,710.3,1385.6,710.3z"/>
			<rect x="1145" y="699.2" fill="#ACB5B5" width="9.7" height="77.8"/>
			<rect x="1347.5" y="699.2" fill="#ACB5B5" width="9.7" height="77.8"/>
			<rect x="1120.7" y="453.6" fill="#ACB5B5" width="8.8" height="41.9"/>
			<circle fill="#ACB5B5" cx="1306.3" cy="674.2" r="30.5"/>
			<circle fill="#ACB5B5" cx="1267.4" cy="675.6" r="22.4"/>
			<circle fill="#ACB5B5" cx="1374.7" cy="685.1" r="12.9"/>
			<rect x="1210.6" y="666.8" fill="#ACB5B5" width="54.9" height="20.9"/>
			<rect x="1202.8" y="643.7" fill="#ACB5B5" width="16.1" height="48.4"/>
			<path fill="#ACB5B5" d="M1203.8,660.5h23.7l6.5-42.5C1233.9,618,1203.8,635.8,1203.8,660.5z"/>
			<path fill="#ACB5B5" d="M1203.8,683.5h23.7l6.5,42.5C1233.9,726,1203.8,708.2,1203.8,683.5z"/>
			<rect x="1192.9" y="653.3" fill="#ACB5B5" width="17.9" height="13.5"/>
			<rect x="1192.9" y="668.9" fill="#ACB5B5" width="17.9" height="13.5"/>
			<g>
				<path fill="#ACB5B5" d="M1375.7,699.4l-62.4-2.5v-52.6l70.9,29.7L1375.7,699.4z M1316,694.3l57.8,2.3l7.1-21.1l-64.9-27.2V694.3
					z"/>
			</g>
		</g>
		<rect x="1172.9" y="704.7" fill="#ACB5B5" width="6.5" height="72.2"/>
		<rect x="1316.7" y="704.7" fill="#ACB5B5" width="6.5" height="72.2"/>
		<rect x="1149.8" y="719.3" fill="#ACB5B5" width="26.5" height="6.7"/>
		<rect x="1149.8" y="737.5" fill="#ACB5B5" width="26.5" height="6.7"/>
		<rect x="1149.8" y="755.7" fill="#ACB5B5" width="26.5" height="6.7"/>
		<rect x="1320.5" y="719.3" fill="#ACB5B5" width="31.8" height="6.7"/>
		<rect x="1320.5" y="737.5" fill="#ACB5B5" width="31.8" height="6.7"/>
		<rect x="1320.5" y="755.7" fill="#ACB5B5" width="31.8" height="6.7"/>
	</g>
	<path clip-path="url(#SVGID_2_)" fill="#A5A5A5" d="M-109.2,1054.9c-2.4,26.4-4.1,54.1,7.1,78.1c16.3,35.1,55.6,52.8,92.7,63.9
		c125,37.2,258.3,31.1,388.6,23.9c116.7-6.4,233.4-13.4,349.9-22.3c198-15,396.2-35.4,589.6-80.1c26.9-6.2,55.3-13.8,74.1-34
		c15.3-16.4,22-38.8,28.2-60.3c21.1-72.6,42.4-147.6,34.1-222.8c-0.9-8.3-2.6-17.3-9.2-22.4c-6.9-5.3-16.5-4.3-25.1-3.4
		c-66.7,7.6-134.9,1.2-199-18.6c-15.3-23.7-50.1-21.4-77.8-16.2c-48.3,9-96.6,17.9-144.8,26.9c-12.2,2.3-25,4.5-36.7,0.6
		c-18.5-6.1-33-26.6-52.1-23.3c-9.9,1.7-17.5,9.5-26.9,13.2c-9.4,3.7-23.6-0.7-22.8-10.7c-12.1,1.1-19.2,13.7-26.2,23.6
		c-7,9.9-20.8,19.1-30.4,11.6c-4.1-3.1-6-8.5-10.3-11.4c-6.1-4.1-14.4-1.6-21.3,0.8c-46.4,16.5-95.1,26.6-144.2,29.9
		c-14.8,1-29.8,1.3-44.4-1.8c-10.3-2.2-20.1-6.2-30.1-9.4c-51.2-16.4-106.3-12.5-159.9-8.5c-5.2-16.9-23.5-26.5-41.1-28.3
		c-17.5-1.7-35,2.6-52.6,4.5c-63.1,6.8-125.3-18.2-188.7-21c-42.2-1.9-84.2,6.1-125.7,14.1c-14.5,2.8-29.7,5.9-40.9,15.5
		c-14.5,12.4-18.9,32.7-22.3,51.5C-91.6,896.7-102.2,975.7-109.2,1054.9z"/>
	<path clip-path="url(#SVGID_2_)" fill="#6F6F6F" d="M-26.3,836.6c13.4-7.5,29.6-6.9,44.9-6.2c86.1,4.1,172.3,8.3,258.4,12.4
		c64.1,3.1,130.6,5.8,189.9-18.7c-2.9,27.3,65,4.7,64.2,32.1c8.4-12.1,20.7-21.5,34.6-26.5c0.8,12.7,15.4,19.7,28.1,20.3
		c12.7,0.6,25.8-2.6,37.8,1.6c13.5,4.7,22.3,17.5,34.4,25.2c25.6,16.4,58.9,7,88.4,0c94.2-22.3,192.4-14.7,289.2-11.5
		c121,4,242.2,1,363.3-2.1c-6.8,16.3,11.4,31.9,27.8,38.5c16.4,6.7,36.6,14.5,39,32c0.7,5.4-0.5,10.9-1.8,16.2
		c-11.2,47.4-22.5,94.8-33.7,142.2c-3.8,16-7.7,32.3-16.9,45.9c-27,40-84.8,40.1-132.9,35.8c-392.8-35.8-787.1-85.3-1180.5-57
		c-38.2,2.8-77.3,6.2-114.3-4s-71.9-37.2-79.6-74.8c-4.8-23.5,1.4-47.7,7.6-70.9c6.7-25.1,13.4-50.1,20-75.2
		C-52.9,870.8-45.6,847.3-26.3,836.6z"/>
	<g clip-path="url(#SVGID_2_)">
		<g>
			<path fill="#6F6F6F" d="M814.3,892.3L763.4,820c-13.1,16.3-51.9,64.6-53.6,66.7l-7.8-6.4c2-2.5,57.2-71.2,57.8-71.9l4.2-5.3
				l50.5,71.7l48.2-66.2l8.2,6L814.3,892.3z"/>
		</g>
		<polygon fill="#6F6F6F" points="914.8,453.9 623.3,577.5 614.7,556.3 906.1,432.7 		"/>
		<path fill="#6F6F6F" d="M739.2,518.2h27.1c3.8,0,6.8,3.1,6.8,6.8v16.2c0,1.8-0.7,3.5-2,4.8l-13.5,13.8c-2.7,2.7-7.1,2.7-9.8,0
			L734.3,546c-1.3-1.3-2-3-2-4.8V525C732.4,521.2,735.4,518.2,739.2,518.2z"/>
		<rect x="868" y="459.1" fill="#6F6F6F" width="15.2" height="15.7"/>
		<rect x="850.9" y="478.5" fill="#6F6F6F" width="15.2" height="15.7"/>
		<rect x="883.2" y="478.5" fill="#6F6F6F" width="15.2" height="15.7"/>
		<circle fill="#6F6F6F" cx="874.9" cy="503.9" r="14.2"/>
		
			<rect x="857.8" y="489.1" transform="matrix(0.9851 -0.172 0.172 0.9851 -72.9244 155.4416)" fill="#6F6F6F" width="5.7" height="19"/>
		
			<rect x="886.3" y="489.1" transform="matrix(-0.9851 -0.172 0.172 -0.9851 1679.3872 1142.7201)" fill="#6F6F6F" width="5.7" height="19"/>
		<polygon fill="#6F6F6F" points="804.7,796.4 810.2,798.2 883.2,500.4 877.8,498.6 		"/>
		<rect x="726.1" y="561.8" fill="#6F6F6F" width="52.5" height="5.3"/>
		<g>
			<polygon fill="#6F6F6F" points="698.5,797.7 693.5,797 723.9,559.3 780.9,559.3 807.5,797 802.4,797.6 776.3,564.4 728.4,564.4 
							"/>
		</g>
		<g>
			<polygon fill="#6F6F6F" points="697.5,766.8 783.7,682.8 707.9,694 775.4,601.7 722.4,616.7 721.4,613 784.9,595.1 716.3,688.9 
				794.8,677.3 708.1,761.7 797.2,751 797.6,754.8 			"/>
		</g>
		<rect x="678.3" y="793.5" fill="#6F6F6F" width="30.4" height="8.4"/>
		<rect x="792.3" y="793.5" fill="#6F6F6F" width="30.4" height="8.4"/>
		<g>
			<path fill="#6F6F6F" d="M607.3,635.6c-0.9,4.1-2.9,7.7-5.7,10.4c-1.8,1.7-3,2.2-3.5,2.3c-19.3-22.9-30.6-46-33.6-68.6
				c-2.7-19.8,1.6-35.7,5.7-45.5c1.2-2.8,3.5-4.8,6.4-5.5c3-0.7,6,0,8.3,2l22.5,19l16.1-3l-30.4-25.7c-5.5-4.6-12.6-6.3-19.5-4.6
				c-6.9,1.7-12.4,6.4-15.1,13c-4.7,11.3-9.6,29.5-6.6,52.1c3.4,25.1,15.7,50.3,36.5,75.1c2.3,2.7,5.4,4.3,8.8,4.5
				c0.9,0.1,2,0,3.2-0.2c2.7-0.5,6.2-2,9.9-5.5c4.8-4.5,8.1-10.4,9.5-17.1l10.3-48.4l-13.5,2.5L607.3,635.6z"/>
		</g>
		<polygon fill="#6F6F6F" points="625,547.6 554.5,562.1 552.7,552.4 615.2,540.6 		"/>
		<polygon fill="#6F6F6F" points="629.4,593.4 558.7,606.7 557,597.9 631.4,583.9 		"/>
		
			<rect x="596.3" y="548.8" transform="matrix(0.9828 -0.1847 0.1847 0.9828 -95.0188 120.747)" fill="#6F6F6F" width="8.2" height="42.9"/>
		<rect x="599.7" y="657.5" fill="#6F6F6F" width="4.2" height="194"/>
		<rect x="592.1" y="835.1" fill="#6F6F6F" width="21.5" height="41.8"/>
		<rect x="586.1" y="851.6" fill="#6F6F6F" width="32.9" height="6.3"/>
		<rect x="586.1" y="867.5" fill="#6F6F6F" width="32.9" height="6.3"/>
		<polygon fill="#6F6F6F" points="586.1,876.9 619,876.9 611.1,897.3 592.1,897.3 		"/>
		<rect x="593.5" y="762.9" fill="#6F6F6F" width="18" height="5.1"/>
		<rect x="593.5" y="773.7" fill="#6F6F6F" width="18" height="5.1"/>
		<path fill="#6F6F6F" d="M943.9,814.9h-307c-7.2,0-13.1-5.8-13.1-13.1l0,0h333.1l0,0C956.9,809,951.1,814.9,943.9,814.9z"/>
		<rect x="660.6" y="801.8" fill="#6F6F6F" width="11.4" height="91.6"/>
		<rect x="899" y="801.8" fill="#6F6F6F" width="11.4" height="91.6"/>
		<rect x="861" y="801.8" fill="#6F6F6F" width="11.4" height="91.6"/>
		<rect x="700.2" y="801.8" fill="#6F6F6F" width="11.4" height="91.6"/>
		
			<rect x="612.9" y="545" transform="matrix(0.9828 -0.1847 0.1847 0.9828 -94.5959 123.9938)" fill="#6F6F6F" width="10.4" height="49.3"/>
		<g>
			<circle fill="#6F6F6F" cx="817.8" cy="775.7" r="36"/>
			<circle fill="#6F6F6F" cx="772" cy="777.4" r="26.4"/>
			<circle fill="#6F6F6F" cx="898.4" cy="788.5" r="15.2"/>
			
				<rect x="704.2" y="793" transform="matrix(0.7175 -0.6965 0.6965 0.7175 -352.8661 740.5044)" fill="#6F6F6F" width="64.6" height="24.6"/>
			
				<rect x="696.4" y="791.2" transform="matrix(0.7175 -0.6965 0.6965 0.7175 -371.5467 723.2171)" fill="#6F6F6F" width="18.9" height="57"/>
			<path fill="#6F6F6F" d="M693.9,819.2l20-19.4l-29.4-41.2C684.5,758.7,673.6,798.3,693.9,819.2z"/>
			<path fill="#6F6F6F" d="M712.8,838.6l20-19.4l40.3,30.6C773,849.8,733,859.5,712.8,838.6z"/>
			<g>
				<path fill="#6F6F6F" d="M899.5,805.4l-73.4-2.9v-61.9l83.5,35L899.5,805.4z M829.2,799.4l68,2.7l8.3-24.9l-76.4-32V799.4z"/>
			</g>
		</g>
		<rect x="889" y="443.3" fill="#6F6F6F" width="9.4" height="50.9"/>
		<g>
			
				<rect x="801.5" y="725.4" transform="matrix(-0.2809 0.9597 -0.9597 -0.2809 1762.8038 148.5935)" fill="#6F6F6F" width="48.5" height="18.5"/>
			
				<rect x="823.5" y="699.9" transform="matrix(-0.2809 0.9597 -0.9597 -0.2809 1746.3679 113.6732)" fill="#6F6F6F" width="14.2" height="22.3"/>
			<path fill="#6F6F6F" d="M838.1,707l-5.9,20.1l34.4,16C866.7,743.1,859.1,713.1,838.1,707z"/>
			<path fill="#6F6F6F" d="M828.9,704.1l-5.9,20.1l-37.6-5.1C785.4,719.1,807.9,698,828.9,704.1z"/>
		</g>
		<rect x="668.7" y="819.2" fill="#6F6F6F" width="40" height="7.3"/>
		<rect x="668.7" y="843.1" fill="#6F6F6F" width="40" height="7.3"/>
		<rect x="668.7" y="866.9" fill="#6F6F6F" width="40" height="7.3"/>
		<rect x="866.7" y="819.2" fill="#6F6F6F" width="40" height="7.3"/>
		<rect x="866.7" y="843.1" fill="#6F6F6F" width="40" height="7.3"/>
		<rect x="866.7" y="866.9" fill="#6F6F6F" width="40" height="7.3"/>
	</g>
	<g clip-path="url(#SVGID_2_)">
		<g>
			<path fill="#6F6F6F" d="M1250.6,883.6l-40.9-58.2c-10.6,13.1-41.8,52-43.2,53.7l-6.3-5.2c1.6-2,46.1-57.3,46.5-57.9l3.4-4.2
				l40.6,57.7l38.8-53.3l6.6,4.8L1250.6,883.6z"/>
		</g>
		<polygon fill="#6F6F6F" points="1331.6,530.6 1096.9,630.1 1089.9,613 1324.6,513.6 		"/>
		<path fill="#6F6F6F" d="M1190.2,582.4h21.8c3,0,5.5,2.5,5.5,5.5v13c0,1.4-0.6,2.8-1.6,3.9l-10.9,11.1c-2.2,2.2-5.7,2.2-7.9,0
			l-10.9-11.1c-1-1-1.6-2.4-1.6-3.9v-13C1184.7,584.9,1187.1,582.4,1190.2,582.4z"/>
		<rect x="1293.9" y="534.8" fill="#6F6F6F" width="12.2" height="12.7"/>
		<rect x="1280.1" y="550.4" fill="#6F6F6F" width="12.2" height="12.7"/>
		<rect x="1306.1" y="550.4" fill="#6F6F6F" width="12.2" height="12.7"/>
		<circle fill="#6F6F6F" cx="1299.5" cy="570.9" r="11.5"/>
		
			<rect x="1285.7" y="559" transform="matrix(0.9851 -0.172 0.172 0.9851 -78.2545 229.939)" fill="#6F6F6F" width="4.6" height="15.3"/>
		
			<rect x="1308.7" y="559" transform="matrix(-0.9851 -0.172 0.172 -0.9851 2504.9553 1350.2694)" fill="#6F6F6F" width="4.6" height="15.3"/>
		<polygon fill="#6F6F6F" points="1243,806.4 1247.3,807.9 1306.1,568.1 1301.8,566.6 		"/>
		<rect x="1179.7" y="617.5" fill="#6F6F6F" width="42.2" height="4.3"/>
		<g>
			<polygon fill="#6F6F6F" points="1157.4,807.4 1153.4,806.9 1177.9,615.5 1223.7,615.5 1245.1,806.9 1241.1,807.4 1220.1,619.6 
				1181.5,619.6 			"/>
		</g>
		<g>
			<polygon fill="#6F6F6F" points="1156.6,782.6 1226.1,714.9 1165,723.9 1219.3,649.7 1176.7,661.7 1175.9,658.8 1227,644.3 
				1171.8,719.8 1235,710.5 1165.2,778.5 1236.9,769.9 1237.2,772.9 			"/>
		</g>
		<rect x="1141.2" y="804" fill="#6F6F6F" width="24.5" height="6.7"/>
		<rect x="1232.9" y="804" fill="#6F6F6F" width="24.5" height="6.7"/>
		<g>
			<path fill="#6F6F6F" d="M1084,676.9c-0.7,3.3-2.3,6.2-4.6,8.4c-1.4,1.3-2.4,1.8-2.8,1.8c-15.5-18.4-24.6-37-27.1-55.2
				c-2.1-16,1.3-28.8,4.6-36.7c0.9-2.2,2.8-3.9,5.2-4.4c2.4-0.6,4.8,0,6.7,1.6l18.1,15.3l12.9-2.4l-24.5-20.7
				c-4.4-3.7-10.1-5.1-15.7-3.7c-5.6,1.4-10,5.2-12.2,10.4c-3.8,9.1-7.7,23.7-5.3,41.9c2.7,20.2,12.6,40.5,29.4,60.5
				c1.8,2.2,4.3,3.5,7.1,3.6c0.7,0,1.6,0,2.6-0.2c2.2-0.4,5-1.6,8-4.4c3.8-3.6,6.5-8.4,7.6-13.7l8.3-39l-10.9,2L1084,676.9z"/>
		</g>
		<polygon fill="#6F6F6F" points="1098.2,606.1 1041.5,617.8 1040,609.9 1090.3,600.5 		"/>
		<polygon fill="#6F6F6F" points="1101.8,643 1044.8,653.7 1043.5,646.5 1103.4,635.3 		"/>
		
			<rect x="1075.1" y="607.1" transform="matrix(0.9828 -0.1847 0.1847 0.9828 -96.7731 209.9764)" fill="#6F6F6F" width="6.6" height="34.5"/>
		<rect x="1077.8" y="694.6" fill="#6F6F6F" width="3.4" height="156.2"/>
		<rect x="1071.7" y="837.6" fill="#6F6F6F" width="17.3" height="33.7"/>
		<rect x="1066.9" y="850.8" fill="#6F6F6F" width="26.5" height="5.1"/>
		<rect x="1066.9" y="863.6" fill="#6F6F6F" width="26.5" height="5.1"/>
		<polygon fill="#6F6F6F" points="1066.9,871.2 1093.4,871.2 1087,887.6 1071.7,887.6 		"/>
		<rect x="1072.9" y="779.4" fill="#6F6F6F" width="14.5" height="4.1"/>
		<rect x="1072.9" y="788.1" fill="#6F6F6F" width="14.5" height="4.1"/>
		<path fill="#6F6F6F" d="M1355,821.3h-247.2c-5.8,0-10.5-4.7-10.5-10.5l0,0h268.2l0,0C1365.5,816.6,1360.8,821.3,1355,821.3z"/>
		<rect x="1126.9" y="810.8" fill="#6F6F6F" width="9.2" height="73.7"/>
		<rect x="1318.9" y="810.8" fill="#6F6F6F" width="9.2" height="73.7"/>
		<rect x="1288.3" y="810.8" fill="#6F6F6F" width="9.2" height="73.7"/>
		<rect x="1158.8" y="810.8" fill="#6F6F6F" width="9.2" height="73.7"/>
		
			<rect x="1088.5" y="604" transform="matrix(0.9828 -0.1847 0.1847 0.9828 -96.4376 212.6028)" fill="#6F6F6F" width="8.4" height="39.7"/>
		<g>
			<circle fill="#6F6F6F" cx="1253.5" cy="789.7" r="28.9"/>
			<circle fill="#6F6F6F" cx="1216.6" cy="791.1" r="21.2"/>
			<circle fill="#6F6F6F" cx="1318.3" cy="800.1" r="12.3"/>
			
				<rect x="1162" y="803.7" transform="matrix(0.7175 -0.6965 0.6965 0.7175 -231.0903 1057.3364)" fill="#6F6F6F" width="52" height="19.8"/>
			
				<rect x="1155.7" y="802.2" transform="matrix(0.7175 -0.6965 0.6965 0.7175 -246.1328 1043.4182)" fill="#6F6F6F" width="15.2" height="45.9"/>
			<path fill="#6F6F6F" d="M1153.7,824.8l16.1-15.6l-23.7-33.2C1146.2,776,1137.4,808,1153.7,824.8z"/>
			<path fill="#6F6F6F" d="M1168.9,840.4l16.1-15.6l32.4,24.6C1217.4,849.4,1185.2,857.3,1168.9,840.4z"/>
			<g>
				<path fill="#6F6F6F" d="M1319.3,813.6l-59.1-2.4v-49.9l67.2,28.1L1319.3,813.6z M1262.7,808.8l54.8,2.2l6.7-20l-61.5-25.8V808.8
					z"/>
			</g>
		</g>
		<rect x="1310.8" y="522.1" fill="#6F6F6F" width="7.5" height="41"/>
		<g>
			
				<rect x="1240.3" y="749.3" transform="matrix(-0.2809 0.9597 -0.9597 -0.2809 2340.043 -239.833)" fill="#6F6F6F" width="39" height="14.9"/>
			
				<rect x="1258.1" y="728.7" transform="matrix(-0.2809 0.9597 -0.9597 -0.2809 2326.8057 -267.9539)" fill="#6F6F6F" width="11.4" height="18"/>
			<path fill="#6F6F6F" d="M1269.9,734.4l-4.7,16.2l27.7,12.9C1292.9,763.5,1286.8,739.3,1269.9,734.4z"/>
			<path fill="#6F6F6F" d="M1262.4,732.1l-4.7,16.2l-30.3-4.1C1227.4,744.2,1245.5,727.2,1262.4,732.1z"/>
		</g>
		<rect x="1133.4" y="824.8" fill="#6F6F6F" width="32.2" height="5.9"/>
		<rect x="1133.4" y="844" fill="#6F6F6F" width="32.2" height="5.9"/>
		<rect x="1133.4" y="863.2" fill="#6F6F6F" width="32.2" height="5.9"/>
		<rect x="1292.9" y="824.8" fill="#6F6F6F" width="32.2" height="5.9"/>
		<rect x="1292.9" y="844" fill="#6F6F6F" width="32.2" height="5.9"/>
		<rect x="1292.9" y="863.2" fill="#6F6F6F" width="32.2" height="5.9"/>
	</g>
	<path clip-path="url(#SVGID_2_)" fill="#3B3F3F" d="M-31.5,849.1h410.3l15.6,20.2c0,0,78.2-10.1,78.2-10.1
		c27.2,26.5,35.2,29.3,55.8,19.2c14.3-7,31.3-5.6,44.3,3.5c9.8,6.9,20.5,13.1,22.1,13.7c19.5,7,43.1,3.2,63.3,2.1
		c41.1-2.1,81.9-8.7,111.4,27c17.6-8.4,37.5-19.9,56.3-19.8c60,0.3,138.4,32.1,190-2.4c36.4-24.4,82.1-30.4,122.9-14.4
		c6.5,2.5,10,4.3,10,4.3c18,0.5,120.7,41.7,132.5,32.2c0,0,41.7-33.8,41.7-33.8l38.1,12.4h80l24,211.1L-83,1063L-31.5,849.1z"/>
	<g clip-path="url(#SVGID_2_)">
		<g>
			<path fill="#3B3F3F" d="M148.3,847.7l64.1-91.1c16.5,20.6,65.4,81.4,67.6,84.1l9.9-8.1c-2.6-3.1-72.1-89.8-72.8-90.6l-5.3-6.6
				l-63.6,90.3l-60.7-83.5L77,749.7L148.3,847.7z"/>
		</g>
		<polygon fill="#3B3F3F" points="21.6,295 389,450.8 399.9,424.1 32.5,268.3 		"/>
		<path fill="#3B3F3F" d="M242.9,376.1h-34.1c-4.8,0-8.6,3.9-8.6,8.6v20.4c0,2.3,0.9,4.4,2.5,6l17.1,17.4c3.4,3.4,8.9,3.4,12.3,0
			l17.1-17.4c1.6-1.6,2.5-3.8,2.5-6v-20.4C251.6,379.9,247.7,376.1,242.9,376.1z"/>
		<rect x="61.4" y="301.6" fill="#3B3F3F" width="19.2" height="19.8"/>
		<rect x="83" y="326" fill="#3B3F3F" width="19.2" height="19.8"/>
		<rect x="42.3" y="326" fill="#3B3F3F" width="19.2" height="19.8"/>
		<circle fill="#3B3F3F" cx="71.8" cy="358.1" r="18"/>
		
			<rect x="86.2" y="339.4" transform="matrix(-0.9851 -0.172 0.172 -0.9851 117.7627 713.0092)" fill="#3B3F3F" width="7.2" height="23.9"/>
		
			<rect x="50.3" y="339.4" transform="matrix(0.9851 -0.172 0.172 0.9851 -59.6294 14.4954)" fill="#3B3F3F" width="7.2" height="23.9"/>
		<polygon fill="#3B3F3F" points="160.3,726.8 153.5,729.1 61.4,353.6 68.3,351.4 		"/>
		<rect x="193.3" y="431.1" fill="#3B3F3F" width="66.1" height="6.7"/>
		<g>
			<polygon fill="#3B3F3F" points="294.2,728.4 300.5,727.6 262.2,427.9 190.4,427.9 156.9,727.6 163.2,728.3 196.1,434.3 
				256.6,434.3 			"/>
		</g>
		<g>
			<polygon fill="#3B3F3F" points="295.5,689.5 186.8,583.5 282.4,597.6 197.3,481.4 264.1,500.2 265.4,495.6 185.3,473 
				271.7,591.2 172.8,576.6 282.1,683.1 169.8,669.6 169.2,674.3 			"/>
		</g>
		<rect x="281.4" y="723.1" fill="#3B3F3F" width="38.3" height="10.6"/>
		<rect x="137.7" y="723.1" fill="#3B3F3F" width="38.3" height="10.6"/>
		<g>
			<path fill="#3B3F3F" d="M409.2,524c1.1,5.2,3.6,9.8,7.2,13.2c2.2,2.1,3.8,2.8,4.4,2.9c24.3-28.9,38.6-58,42.4-86.5
				c3.4-25-2.1-45-7.2-57.4c-1.5-3.5-4.4-6-8.1-6.9c-3.8-0.9-7.6,0-10.5,2.5l-28.4,24l-20.2-3.8l38.3-32.4
				c6.9-5.8,15.8-7.9,24.6-5.8c8.7,2.1,15.7,8.1,19.1,16.3c5.9,14.2,12.1,37.1,8.3,65.7c-4.3,31.6-19.7,63.4-46,94.7
				c-2.9,3.4-6.8,5.4-11.1,5.7c-1.2,0.1-2.5,0-4-0.3c-3.5-0.6-7.8-2.5-12.5-6.9c-6-5.6-10.2-13.1-11.9-21.5l-12.9-61.1l17,3.2
				L409.2,524z"/>
		</g>
		<polygon fill="#3B3F3F" points="386.9,413.1 475.7,431.5 478.1,419.2 399.3,404.4 		"/>
		<polygon fill="#3B3F3F" points="381.4,470.9 470.5,487.7 472.6,476.5 378.8,458.9 		"/>
		
			<rect x="412.7" y="414.7" transform="matrix(-0.9828 -0.1847 0.1847 -0.9828 746.882 953.0383)" fill="#3B3F3F" width="10.4" height="54"/>
		<rect x="413.6" y="551.7" fill="#3B3F3F" width="5.3" height="244.6"/>
		<rect x="401.3" y="775.6" fill="#3B3F3F" width="27.1" height="52.7"/>
		<rect x="394.4" y="796.3" fill="#3B3F3F" width="41.5" height="8"/>
		<rect x="394.4" y="816.4" fill="#3B3F3F" width="41.5" height="8"/>
		<polygon fill="#3B3F3F" points="435.9,828.3 394.4,828.3 404.5,853.9 428.4,853.9 		"/>
		<rect x="404" y="684.6" fill="#3B3F3F" width="22.6" height="6.4"/>
		<rect x="404" y="698.1" fill="#3B3F3F" width="22.6" height="6.4"/>
		<path fill="#3B3F3F" d="M-15.1,750.1h387c9.1,0,16.5-7.4,16.5-16.5l0,0H-31.5l0,0C-31.5,742.7-24.1,750.1-15.1,750.1z"/>
		<rect x="327.7" y="733.6" fill="#3B3F3F" width="14.4" height="115.4"/>
		<rect x="27" y="733.6" fill="#3B3F3F" width="14.4" height="115.4"/>
		<rect x="75" y="733.6" fill="#3B3F3F" width="14.4" height="115.4"/>
		<rect x="277.7" y="733.6" fill="#3B3F3F" width="14.4" height="115.4"/>
		
			<rect x="389" y="409.9" transform="matrix(-0.9828 -0.1847 0.1847 -0.9828 702.9028 947.3488)" fill="#3B3F3F" width="13.1" height="62.2"/>
		<g>
			<circle fill="#3B3F3F" cx="143.8" cy="700.7" r="45.3"/>
			<circle fill="#3B3F3F" cx="201.6" cy="702.8" r="33.2"/>
			<circle fill="#3B3F3F" cx="42.3" cy="716.8" r="19.2"/>
			
				<rect x="205.6" y="722.5" transform="matrix(-0.7175 -0.6965 0.6965 -0.7175 -91.048 1439.0962)" fill="#3B3F3F" width="81.4" height="31"/>
			
				<rect x="273" y="720.2" transform="matrix(-0.7175 -0.6965 0.6965 -0.7175 -37.326 1497.1648)" fill="#3B3F3F" width="23.8" height="71.9"/>
			<path fill="#3B3F3F" d="M300,755.6l-25.2-24.5l37.1-51.9C311.8,679.2,325.6,729.2,300,755.6z"/>
			<path fill="#3B3F3F" d="M276.3,780l-25.2-24.5l-50.8,38.6C200.3,794.2,250.7,806.4,276.3,780z"/>
			<g>
				<path fill="#3B3F3F" d="M28.2,700.4l105.2-44.1v78.1l-92.6,3.7L28.2,700.4z M129.4,662.3l-96.3,40.3L43.7,734l85.7-3.4V662.3z"
					/>
			</g>
		</g>
		<rect x="42.3" y="281.7" fill="#3B3F3F" width="11.8" height="64.2"/>
		<g>
			
				<rect x="103.3" y="637.3" transform="matrix(0.2809 0.9597 -0.9597 0.2809 719.0992 338.2265)" fill="#3B3F3F" width="61.1" height="23.3"/>
			
				<rect x="118.8" y="605.2" transform="matrix(0.2809 0.9597 -0.9597 0.2809 686.1183 322.7043)" fill="#3B3F3F" width="17.9" height="28.1"/>
			<path fill="#3B3F3F" d="M118.2,614.1l7.4,25.3l-43.4,20.2C82.2,659.6,91.8,621.8,118.2,614.1z"/>
			<path fill="#3B3F3F" d="M129.8,610.4l7.4,25.3l47.5-6.4C184.7,629.4,156.3,602.7,129.8,610.4z"/>
		</g>
		<rect x="281.4" y="755.6" fill="#3B3F3F" width="50.4" height="9.3"/>
		<rect x="281.4" y="785.6" fill="#3B3F3F" width="50.4" height="9.3"/>
		<rect x="281.4" y="815.6" fill="#3B3F3F" width="50.4" height="9.3"/>
		<rect x="31.8" y="755.6" fill="#3B3F3F" width="50.4" height="9.3"/>
		<rect x="31.8" y="785.6" fill="#3B3F3F" width="50.4" height="9.3"/>
		<rect x="31.8" y="815.6" fill="#3B3F3F" width="50.4" height="9.3"/>
	</g>
	<g clip-path="url(#SVGID_2_)">
		<g>
			<rect x="835.2" y="384.9" width="428.4" height="36.1"/>
			<path d="M1002.2,371.5h42.8c6,0,10.8,4.8,10.8,10.8v25.5c0,2.8-1.1,5.6-3.1,7.6l-21.4,21.8c-4.2,4.3-11.2,4.3-15.4,0l-21.4-21.8
				c-2-2-3.1-4.7-3.1-7.6v-25.5C991.4,376.3,996.2,371.5,1002.2,371.5z"/>
			<rect x="1205" y="378.1" width="24" height="24.9"/>
			<rect x="1178" y="408.6" width="24" height="24.9"/>
			<rect x="1229" y="408.6" width="24" height="24.9"/>
			<circle cx="1216" cy="448.9" r="22.5"/>
			<rect x="1189" y="425.5" transform="matrix(0.9851 -0.172 0.172 0.9851 -57.9651 211.8224)" width="9" height="30"/>
			<rect x="1234" y="425.5" transform="matrix(-0.9851 -0.172 0.172 -0.9851 2382.8926 1087.3518)" width="9" height="30"/>
			<polygon points="1105.7,810.9 1114.2,813.7 1229,443.3 1220.5,440.5 			"/>
			<rect x="981.6" y="440.5" width="82.8" height="8.4"/>
			<g>
				<polygon points="938,812.8 930,811.8 978,436.5 1068,436.5 1110,811.9 1102,812.8 1060.8,444.5 985.1,444.5 				"/>
			</g>
			<g>
				<polygon points="936.3,764.2 1072.5,631.4 952.8,649.1 1059.3,503.5 975.7,527.1 974.1,521.3 1074.4,492.9 966.1,641.1 
					1090,622.8 953.1,756.1 1093.8,739.2 1094.5,745.2 				"/>
			</g>
			<rect x="906" y="806.2" width="48" height="13.2"/>
			<rect x="1086" y="806.2" width="48" height="13.2"/>
			<g>
				<path d="M805.1,500.8c-2.6,6.2-6.7,11.2-12,14.5c-3.3,2.1-5.3,2.5-6.1,2.5c-23.2-41.2-34.1-80.3-32.2-116.3
					c1.6-31.6,13-55,22.2-69c2.6-4,6.8-6.4,11.6-6.7c4.8-0.3,9.3,1.7,12.4,5.5l29.4,36.1h25.8l-39.7-48.7
					c-7.1-8.7-17.7-13.4-28.9-12.8c-11.2,0.6-21.2,6.3-27.3,15.7c-10.6,16.1-23.5,42.9-25.4,78.9c-2.1,39.9,9.6,82.7,34.8,127.2
					c2.7,4.8,7.1,8.2,12.3,9.5c1.4,0.4,3.1,0.6,5,0.6c4.4,0,10.1-1.3,16.9-5.6c8.7-5.6,15.5-13.8,19.7-23.7l30-72.2H832L805.1,500.8
					z"/>
			</g>
			<polygon points="858.2,369.5 744.6,371.5 744.6,355.8 845,355.8 			"/>
			<polygon points="851.6,441.9 738,441.9 738,427.6 857.6,427.6 			"/>
			<rect x="807" y="363.6" width="13" height="67.7"/>
			<rect x="738" y="427.6" width="6.6" height="306.4"/>
			<rect x="726" y="708.1" width="34" height="66"/>
			<rect x="716.6" y="734.1" width="52" height="10"/>
			<rect x="716.6" y="759.2" width="52" height="10"/>
			<polygon points="716.6,774.1 768.6,774.1 756,806.2 726,806.2 			"/>
			<rect x="728.2" y="594.1" width="28.4" height="8"/>
			<rect x="728.2" y="611.1" width="28.4" height="8"/>
			<path d="M1325.4,840.1H840.6c-11.4,0-20.6-9.2-20.6-20.6l0,0h526l0,0C1346,830.8,1336.8,840.1,1325.4,840.1z"/>
			<rect x="878" y="819.5" width="18" height="144.6"/>
			<rect x="1254.6" y="819.5" width="18" height="144.6"/>
			<rect x="832.9" y="362.7" width="16.4" height="77.9"/>
			<circle cx="1178.1" cy="773" r="56.8"/>
			<circle cx="1105.7" cy="775.7" r="41.6"/>
			<circle cx="1305.2" cy="793.3" r="24.1"/>
			<rect x="1000" y="759.2" width="102" height="38.9"/>
			<rect x="985.5" y="716.2" width="29.9" height="90"/>
			<path d="M987.4,747.6h44l12-79C1043.4,668.6,987.4,701.6,987.4,747.6z"/>
			<path d="M987.4,790.3h44l12,79C1043.4,869.3,987.4,836.3,987.4,790.3z"/>
			<rect x="967.2" y="734.1" width="33.3" height="25.1"/>
			<rect x="967.2" y="763.1" width="33.3" height="25.1"/>
			<g>
				<path d="M1307,819.9l-116-4.6v-97.8l131.8,55.2L1307,819.9z M1196,810.4l107.4,4.3l13.2-39.3L1196,725V810.4z"/>
			</g>
		</g>
		<rect x="930" y="829.8" width="12.1" height="134.3"/>
		<rect x="1197.4" y="829.8" width="12.1" height="134.3"/>
		<rect x="887" y="856.9" width="49.3" height="12.4"/>
		<rect x="887" y="890.7" width="49.3" height="12.4"/>
		<rect x="887" y="924.6" width="49.3" height="12.4"/>
		<rect x="1204.4" y="856.9" width="59.2" height="12.4"/>
		<rect x="1204.4" y="890.7" width="59.2" height="12.4"/>
		<rect x="1204.4" y="924.6" width="59.2" height="12.4"/>
	</g>
	<path clip-path="url(#SVGID_2_)" d="M-47,924.7c0.6,2.4,60.2,4.6,65.2,4.3c29.8-1.8,43.9-14,67.7-30.2c2.5-1.7,26.9,36.5,28.1,38.2
		c-7.4-10.8,78.7-16.7,85.5-16c33.7,3.8,65.1,18.3,99.6,9.8c47.7-11.8,44-32.6,93.3-6.2c7.2,3.8,38.8-12.8,47.3-13.5
		c22.1-2,33.2,1.1,54.1,10.3c23.5,10.4,26.6,18.4,55.1,15.4c19.8-2,43.3-23.1,62.9-21.2c43.1,4.2,59.3,14.8,104.8,1.4l18.1,20
		l33.9-12.4l66.6,12.4l60.8,27.1h71.2l32.8-33.3l83,6.2l27,27.1l24-39.5l70.5,12.4l68.2,27.1l50.2-27.1l38.1,27.1l60-27.1v94.1
		L-29.2,999C-29.2,999-46.3,927.5-47,924.7z"/>
</g>
</svg>
